<svg width="18" height="18" viewBox="0 0 18 18" fill="none" xmlns="http://www.w3.org/2000/svg">
<path d="M16.6519 14.944L16.651 14.943L11.6891 10.107L11.6889 10.1068L10.563 9.02381L16.6509 3.10501C16.7781 2.98136 16.8815 2.84375 16.9466 2.69187C17.0107 2.54231 17.0497 2.37923 17.0497 2.21503C17.0497 2.0424 17.0244 1.87791 16.9459 1.72457C16.8825 1.57688 16.7928 1.42691 16.6757 1.31302L16.6757 1.31297L16.6737 1.31124C16.5477 1.20094 16.4068 1.10088 16.2513 1.03787C16.0951 0.974621 15.9151 0.95 15.7499 0.95C15.5816 0.95 15.4147 0.987768 15.2498 1.04941L15.2498 1.04939L15.2486 1.0499C15.093 1.11291 14.9516 1.21316 14.8365 1.32505L7.83302 8.13403C7.71635 8.24745 7.6262 8.38549 7.56207 8.53514L7.56205 8.53513L7.56153 8.53644C7.49803 8.69695 7.45903 8.85968 7.45903 9.02401C7.45903 9.18821 7.49797 9.35129 7.56207 9.50084C7.6262 9.65049 7.71635 9.78853 7.83302 9.90196L14.8365 16.7109L14.8365 16.7109L14.8375 16.7119C15.0828 16.9378 15.4047 17.0499 15.7375 17.0499C16.0727 17.0499 16.3945 16.9122 16.6262 16.6869C16.8703 16.4495 16.9999 16.1484 17.0002 15.8219C17.0128 15.4948 16.8832 15.1813 16.6519 14.944Z" fill="#181725" stroke="#181725" stroke-width="0.1"/>
<path d="M1.34739 3.05604L1.3483 3.05695L6.31015 7.89301L6.31039 7.89324L7.43625 8.97619L1.34834 14.895C1.22116 15.0186 1.11774 15.1563 1.05264 15.3081C0.988551 15.4577 0.949613 15.6208 0.949613 15.785C0.949613 15.9576 0.974875 16.1221 1.05333 16.2754C1.1168 16.4231 1.20645 16.5731 1.3236 16.687L1.32355 16.687L1.32552 16.6888C1.45158 16.7991 1.59246 16.8991 1.74801 16.9621C1.90414 17.0254 2.08417 17.05 2.24936 17.05C2.41771 17.05 2.5846 17.0122 2.74944 16.9506L2.74945 16.9506L2.7507 16.9501C2.90625 16.8871 3.04766 16.7868 3.16274 16.6749L10.1663 9.86597C10.2829 9.75255 10.3731 9.61451 10.4372 9.46486L10.4372 9.46487L10.4377 9.46356C10.5012 9.30306 10.5402 9.14032 10.5402 8.97599C10.5402 8.8118 10.5013 8.64871 10.4372 8.49916C10.3731 8.34951 10.2829 8.21147 10.1663 8.09805L3.16274 1.28907L3.16276 1.28906L3.16176 1.28814C2.91645 1.06219 2.59459 0.950107 2.26173 0.950107C1.92653 0.950107 1.60481 1.08785 1.37309 1.31313C1.12895 1.55049 0.999369 1.85162 0.999109 2.17806C0.98645 2.50523 1.11607 2.81865 1.34739 3.05604Z" fill="#181725" stroke="#181725" stroke-width="0.1"/>
</svg>
