<svg xmlns="http://www.w3.org/2000/svg" version="1.1" xmlns:xlink="http://www.w3.org/1999/xlink" xmlns:svgjs="http://svgjs.com/svgjs" width="1920" height="1200" preserveAspectRatio="none" viewBox="0 0 1920 1200"><g mask="url(&quot;#SvgjsMask1027&quot;)" fill="none"><rect width="1920" height="1200" x="0" y="0" fill="rgba(49, 1, 138, 1)"></rect><path d="M76 1200L1276 0L1657 0L457 1200z" fill="url(#SvgjsLinearGradient1028)"></path><path d="M731.6 1200L1931.6 0L2416.1 0L1216.1 1200z" fill="url(#SvgjsLinearGradient1028)"></path><path d="M1910 1200L710 0L359 0L1559 1200z" fill="url(#SvgjsLinearGradient1029)"></path><path d="M1245.4 1200L45.40000000000009 0L-475.0999999999999 0L724.9000000000001 1200z" fill="url(#SvgjsLinearGradient1029)"></path><path d="M1203.2268397969638 1200L1920 483.22683979696376L1920 1200z" fill="url(#SvgjsLinearGradient1028)"></path><path d="M0 1200L716.7731602030362 1200L 0 483.22683979696376z" fill="url(#SvgjsLinearGradient1029)"></path></g><defs><mask id="SvgjsMask1027"><rect width="1920" height="1200" fill="#ffffff"></rect></mask><linearGradient x1="0%" y1="100%" x2="100%" y2="0%" id="SvgjsLinearGradient1028"><stop stop-color="rgba(15, 70, 185, 0.2)" offset="0"></stop><stop stop-opacity="0" stop-color="rgba(15, 70, 185, 0.2)" offset="0.66"></stop></linearGradient><linearGradient x1="100%" y1="100%" x2="0%" y2="0%" id="SvgjsLinearGradient1029"><stop stop-color="rgba(15, 70, 185, 0.2)" offset="0"></stop><stop stop-opacity="0" stop-color="rgba(15, 70, 185, 0.2)" offset="0.66"></stop></linearGradient></defs></svg>